<?xml version="1.0" encoding="UTF-8" standalone="no"?>
<!-- Created with Inkscape (http://www.inkscape.org/) -->

<svg
   version="1.1"
   id="svg824"
   width="212.34399"
   height="212.34399"
   viewBox="0 0 212.34399 212.34399"
   xmlns="http://www.w3.org/2000/svg"
   xmlns:svg="http://www.w3.org/2000/svg">
  <defs
     id="defs828" />
  <g
     id="g970"
     transform="translate(-39.527316,-24.513064)">
    <g
       id="g830">
      <path
         style="stroke-width:0.666667"
         d="m 60.535783,235.3063 c -1.35532,-0.71579 -3.30532,-2.40417 -4.333334,-3.75194 -1.598657,-2.09592 -1.902742,-3.19013 -2.10151,-7.56206 -0.841939,-18.51847 10.429904,-37.61138 27.369743,-46.36047 8.67406,-4.47997 13.616267,-5.52449 26.879008,-5.68081 l 11.1242,-0.13111 12.76931,12.75671 c 7.02312,7.01619 13.08218,12.75671 13.46458,12.75671 0.38241,0 6.48154,-5.73774 13.55364,-12.75054 l 12.85837,-12.75056 11.30996,0.1205 c 8.56189,0.0912 12.49747,0.42421 16.19721,1.37045 21.87448,5.59455 37.9109,26.13051 38.01147,48.67682 0.0246,5.50763 -0.17488,6.66004 -1.52978,8.83923 -0.8569,1.37824 -2.83326,3.25324 -4.3919,4.16667 l -2.83389,1.66077 -82.94143,-0.0295 c -80.947898,-0.0288 -83.000657,-0.0607 -85.405647,-1.3309 z m 120.436967,-13.44217 4.33133,-2.13588 4.69077,2.26926 c 6.15659,2.97836 6.8539,2.46674 6.11123,-4.48386 l -0.51478,-4.81785 3.23164,-3.18123 c 2.42215,-2.38438 3.18305,-3.59871 3.03768,-4.8479 -0.17655,-1.51717 -0.66729,-1.76008 -5.47075,-2.70803 l -5.27679,-1.04136 -2.02211,-4.10473 c -3.06688,-6.22552 -4.22563,-6.1716 -7.33862,0.34152 l -1.85799,3.88736 -5.05421,0.97928 c -7.07971,1.37174 -7.47434,2.28681 -2.9583,6.85965 l 3.5266,3.57096 -0.46889,5.17443 c -0.37054,4.08908 -0.27355,5.29812 0.46244,5.76413 1.19759,0.75829 0.61583,0.91763 5.57075,-1.52575 z M 137,156.90793 c -6.2176,-1.26246 -10.88696,-2.86524 -16,-5.49208 -8.17024,-4.19748 -16.70625,-12.6118 -20.87974,-20.58206 -2.869551,-5.48009 -3.397658,-6.84391 -5.098618,-13.16712 -1.26254,-4.69342 -1.918047,-12.90595 -1.3562,-16.99108 0.383527,-2.788583 0.688853,-3.394943 1.571933,-3.121817 10.327295,3.194107 13.154865,3.906897 20.429295,5.149937 22.68545,3.87644 44.59613,3.45836 66.66667,-1.27208 3.41966,-0.73295 11.11678,-2.932577 13.126,-3.75105 1.61145,-0.65644 2.15684,2.98272 1.66267,11.09421 -1.47051,24.13728 -18.63387,43.65538 -42.07778,47.85066 -3.77452,0.67545 -15.22597,0.85472 -18.04423,0.28248 z M 131.66667,90.94036 C 117.61046,89.566907 102.21402,85.96234 91.666669,81.575687 L 87.000002,79.63482 86.666669,73.892093 86.333335,68.149367 80.874902,62.466951 c -6.036987,-6.284704 -7.34054,-9.05795 -6.19974,-13.189601 0.75126,-2.720829 3.994306,-6.301261 6.162013,-6.803059 0.822887,-0.190488 6.74616,-1.703334 13.162827,-3.361878 36.111658,-9.333942 49.174968,-12.666308 50.672548,-12.926244 1.3721,-0.238156 19.70737,4.188358 48.99412,11.828192 20.40292,5.322372 19.05551,4.853204 21.5264,7.495494 0.83952,0.897756 1.70105,2.708538 1.91451,4.02396 0.74644,4.599744 -0.14719,6.528472 -5.77747,12.469592 L 206,67.627773 l -0.0102,5.35278 c -0.005,2.944027 -0.23061,5.673934 -0.5,6.066454 -0.68801,1.002506 -9.76296,4.60646 -15.82312,6.283873 -6.74761,1.867693 -9.84583,2.597367 -14,3.297207 -2.56667,0.4324 -6.16667,1.095266 -8,1.473046 -3.33316,0.68684 -30.96682,1.331027 -36,0.839227 z m 18.13765,-13.71948 c 3.4688,-2.099407 8.02112,-7.67704 9.5069,-11.648125 1.8111,-4.840619 2.54954,-12.972918 1.27374,-14.027646 -0.50506,-0.417546 -3.98928,-1.996418 -7.74272,-3.508603 l -6.82442,-2.749427 -7.03278,2.749681 c -8.88486,3.473807 -9.46198,4.200912 -8.30395,10.461835 0.45792,2.475772 1.41486,6.079868 2.12653,8.009101 2.09904,5.690217 10.43469,13.338931 13.52348,12.409024 0.73456,-0.221147 2.29751,-0.984273 3.47322,-1.69584 z"
         id="path932" />
    </g>
    <rect
       style="fill:none;stroke:none;stroke-width:0.755906"
       id="rect845"
       width="212.34442"
       height="212.34442"
       x="39.527317"
       y="25.125891" />
  </g>
</svg>
